<svg id="Layer_1" data-name="Layer 1" xmlns="http://www.w3.org/2000/svg" viewBox="0 0 390 492"><defs><style>.cls-1{font-size:28.13px;stroke:#000;stroke-miterlimit:10;stroke-width:0.85px;font-family:HiraginoSans-W0-83pv-RKSJ-H, Hiragino Sans;}.cls-2{fill:#7542ff;}.cls-10,.cls-2,.cls-3,.cls-4,.cls-5,.cls-6,.cls-7,.cls-8{opacity:0.7;}.cls-3{fill:#8557ff;}.cls-4{fill:#9c76ff;}.cls-5{fill:#b296ff;}.cls-6{fill:#a381ff;}.cls-7{fill:#662dff;}.cls-8{fill:#baa0ff;}.cls-10,.cls-11,.cls-13,.cls-14,.cls-15,.cls-16,.cls-9{fill:#cbcbcb;}.cls-11{opacity:0.3;}.cls-12{fill:#999;opacity:0.37;}.cls-13{opacity:0.75;}.cls-14{opacity:0.45;}.cls-15{opacity:0.2;}.cls-16{opacity:0.47;}</style></defs><text class="cls-1" transform="translate(155.79 358.89) scale(0.37 1)"> </text><path class="cls-2" d="M389.51,798.24l-32-17.65q1.75,31.53,3.52,63h28.49Z" transform="translate(0 -352)"/><polygon class="cls-3" points="72.76 438.28 45.16 491.64 82.49 492 72.76 438.28"/><polygon class="cls-2" points="84.58 433.25 21.28 332.08 35.21 492 45.16 491.64 72.76 438.28 84.58 433.25"/><polygon class="cls-4" points="35.21 492 21.28 332.08 0 215.37 0 404.57 35.21 492"/><polygon class="cls-5" points="0 404.57 35.21 492 0 491.64 0 404.57"/><polygon class="cls-6" points="82.49 492 72.76 438.28 84.58 433.25 112.55 465.14 121.06 492 82.49 492"/><path class="cls-6" d="M112.55,817.14l176-56.72-32.77,83.22Z" transform="translate(0 -352)"/><polyline class="cls-7" points="112.55 465.14 255.79 491.64 121.06 492"/><polygon class="cls-7" points="255.79 491.64 266.61 465.14 361.02 491.64 255.79 491.64"/><path class="cls-3" d="M316.14,773l20.91-55.73,20.45,63.29q1.75,31.53,3.52,63l-94.41-26.5Z" transform="translate(0 -352)"/><polygon class="cls-7" points="324.51 376.45 389.51 205.11 389.51 317.96 343.63 385.55 337.05 365.3 324.51 376.45"/><polygon class="cls-6" points="343.63 385.55 389.51 317.96 389.51 446.24 357.5 428.59 343.63 385.55"/><polygon class="cls-8" points="288.56 408.42 324.51 376.45 337.05 365.3 316.14 421.03 266.61 465.14 288.56 408.42"/><polygon class="cls-9" points="0 154.6 0 215.37 21.28 332.08 54.2 384.7 35.21 269.65 0 154.6"/><polygon class="cls-10" points="35.21 269.65 106.66 388.34 125.08 460.12 112.55 464.3 84.58 433.25 54.2 384.7 35.21 269.65"/><polygon class="cls-11" points="106.66 388.34 209.98 433.25 125.08 460.12 106.66 388.34"/><path class="cls-12" d="M58.11,659.54l103.8,7.4,90.48,105.13L210,785.25,106.66,740.34Z" transform="translate(0 -352)"/><path class="cls-13" d="M229.47,745.44l23.64-108.59L390,352l-.49,36.27L361,555.08,239.28,756.57Z" transform="translate(0 -352)"/><polygon class="cls-14" points="389.51 36.27 389.51 205.11 337.05 343.39 324.51 376.45 300.15 398.11 332.45 250.36 361.02 203.07 389.51 36.27"/><polygon class="cls-15" points="332.45 250.36 239.28 404.57 252.39 420.07 288.56 408.42 300.15 398.11 332.45 250.36"/><polygon class="cls-16" points="316.56 152.8 116.4 311.69 161.91 314.94 229.47 393.44 253.11 284.85 316.56 152.8"/></svg>